<svg width="70" height="76" viewBox="0 0 70 76" fill="none" xmlns="http://www.w3.org/2000/svg">
<path d="M0 10C0 4.47715 4.47715 0 10 0H60C65.5229 0 70 4.47715 70 10V66C70 71.5229 65.5229 76 60 76H10C4.47715 76 0 71.5229 0 66V10Z" fill="#23A6F0"/>
<g clip-path="url(#clip0_0_93)">
<g clip-path="url(#clip1_0_93)">
<g clip-path="url(#clip2_0_93)">
<path d="M34.9909 26.2182C28.0159 20.1176 19.1473 25.4778 19.0018 32.7444C18.9648 34.5964 19.4994 36.4003 20.5635 38.0633H27.4607L28.6875 36.0186C29.0437 35.425 29.9058 35.4059 30.2822 35.9977L32.8705 40.0651L36.6436 32.1C36.9726 31.405 37.9532 31.3829 38.3161 32.0569L41.5504 38.0633H49.4184C55.2468 28.954 43.7279 18.5766 34.9909 26.2182Z" fill="white"/>
<path d="M40.1651 39.4451L37.5443 34.5779L33.8383 42.4017C33.523 43.0673 32.5956 43.1251 32.2002 42.5037L29.5148 38.2838L28.7953 39.4829C28.6259 39.7653 28.3208 39.938 27.9915 39.938H22.0464C22.2328 40.1331 21.2395 39.1418 34.3297 52.1642C34.6953 52.528 35.2863 52.5281 35.652 52.1642C48.5408 39.3422 47.7493 40.1327 47.9353 39.938H40.9905C40.6456 39.9381 40.3286 39.7487 40.1651 39.4451Z" fill="white"/>
</g>
</g>
</g>
<defs>
<clipPath id="clip0_0_93">
<rect width="32" height="32" fill="white" transform="translate(19 22)"/>
</clipPath>
<clipPath id="clip1_0_93">
<rect width="32" height="32" fill="white" transform="translate(19 22)"/>
</clipPath>
<clipPath id="clip2_0_93">
<rect width="32" height="28.8744" fill="white" transform="translate(19 23.5627)"/>
</clipPath>
</defs>
</svg>
