<svg width="70" height="76" viewBox="0 0 70 76" fill="none" xmlns="http://www.w3.org/2000/svg">
<path d="M0 10C0 4.47715 4.47715 0 10 0H60C65.5229 0 70 4.47715 70 10V66C70 71.5229 65.5229 76 60 76H10C4.47715 76 0 71.5229 0 66V10Z" fill="#40BB15"/>
<g clip-path="url(#clip0_0_104)">
<g clip-path="url(#clip1_0_104)">
<path d="M25.3484 54H44.6516C45.8003 54 46.7565 53.1215 46.7565 52.0419V28.6286C46.7565 27.5487 45.8003 26.6609 44.6516 26.6609H41.4696V28.4487C41.4742 28.759 41.2294 29.0158 40.9193 29.0261H29.0429C28.7266 29.0185 28.4712 28.765 28.4609 28.4487V26.6609H25.3484C24.1997 26.6609 23.2435 27.5487 23.2435 28.6286V52.0419C23.2435 53.1215 24.1997 54 25.3484 54ZM29.6435 36.0522C29.6435 35.7449 29.8927 35.4957 30.2 35.4957H33.0522V32.6435C33.0522 32.3362 33.3014 32.087 33.6087 32.087H36.3913C36.6987 32.087 36.9478 32.3362 36.9478 32.6435V35.4957H39.8C40.1073 35.4957 40.3565 35.7449 40.3565 36.0522V38.8348C40.3565 39.1421 40.1073 39.3913 39.8 39.3913H36.9478V42.2435C36.9478 42.5508 36.6987 42.8 36.3913 42.8H33.6087C33.3014 42.8 33.0522 42.5508 33.0522 42.2435V39.3913H30.2C29.8927 39.3913 29.6435 39.1421 29.6435 38.8348V36.0522ZM29.8701 45.6522H40.1299C40.4375 45.6522 40.6864 45.9014 40.6864 46.2087C40.6864 46.5161 40.4375 46.7652 40.1299 46.7652H29.8701C29.5625 46.7652 29.3136 46.5161 29.3136 46.2087C29.3136 45.9014 29.5625 45.6522 29.8701 45.6522ZM27.7832 48.4348H42.2169C42.5245 48.4348 42.7734 48.684 42.7734 48.9913C42.7734 49.2987 42.5245 49.5478 42.2169 49.5478H27.7832C27.4756 49.5478 27.2266 49.2987 27.2266 48.9913C27.2266 48.684 27.4756 48.4348 27.7832 48.4348Z" fill="white"/>
<path d="M40.3565 24.1565H37.7522C37.4902 24.1563 37.2636 23.9734 37.2084 23.7171C36.9932 22.7226 36.0486 22 34.9622 22H34.9554C33.8981 21.9989 32.9745 22.7144 32.7114 23.7383C32.6481 23.9842 32.4264 24.1563 32.1723 24.1565H29.5739V27.913H40.3565V24.1565Z" fill="white"/>
<path d="M34.1652 38.8347V41.6869H35.8348V38.8347C35.8348 38.5274 36.084 38.2782 36.3913 38.2782H39.2435V36.6086H36.3913C36.084 36.6086 35.8348 36.3595 35.8348 36.0521V33.2H34.1652V36.0521C34.1652 36.3595 33.916 36.6086 33.6087 36.6086H30.7565V38.2782H33.6087C33.916 38.2782 34.1652 38.5274 34.1652 38.8347Z" fill="white"/>
</g>
</g>
<defs>
<clipPath id="clip0_0_104">
<rect width="32" height="32" fill="white" transform="translate(19 22)"/>
</clipPath>
<clipPath id="clip1_0_104">
<rect width="32" height="32" fill="white" transform="translate(19 22)"/>
</clipPath>
</defs>
</svg>
