<svg width="70" height="76" viewBox="0 0 70 76" fill="none" xmlns="http://www.w3.org/2000/svg">
<path d="M0 10C0 4.47715 4.47715 0 10 0H60C65.5229 0 70 4.47715 70 10V66C70 71.5229 65.5229 76 60 76H10C4.47715 76 0 71.5229 0 66V10Z" fill="#3C403D"/>
<g clip-path="url(#clip0_0_115)">
<g clip-path="url(#clip1_0_115)">
<g clip-path="url(#clip2_0_115)">
<g clip-path="url(#clip3_0_115)">
<path d="M29.6705 38.3349C30.0645 38.2533 30.4761 38.0745 30.8645 37.7942C31.981 36.9865 32.4766 35.6603 31.9702 34.8305C31.4196 33.9279 29.9135 33.9886 28.756 35.0158C27.6492 35.9714 27.4131 36.9699 27.4131 38.0194C27.4131 38.7609 27.6503 40.0849 29.0991 41.2347C29.7831 40.7062 30.5986 40.2714 31.5243 39.957L31.5366 39.9525C30.8253 39.6561 29.8981 39.0711 29.6705 38.3349ZM29.4919 35.7827C29.4919 35.4726 29.7389 35.2233 30.0436 35.2233C30.348 35.2233 30.5953 35.4738 30.5953 35.7838C30.5953 36.0939 30.348 36.3432 30.0436 36.3432C29.739 36.3432 29.4919 36.0927 29.4919 35.7827Z" fill="white"/>
</g>
</g>
<g clip-path="url(#clip4_0_115)">
<g clip-path="url(#clip5_0_115)">
<path d="M42.607 38.0203C42.6037 36.9698 42.3687 35.9713 41.2609 35.0157C40.1044 33.9895 38.5972 33.9266 38.0465 34.8304C37.5412 35.6601 38.0355 36.9864 39.1521 37.7941C39.5406 38.0744 39.9522 38.2531 40.346 38.3347C40.2092 38.7772 39.7932 39.2274 39.1588 39.607C38.2865 40.1276 37.8152 40.192 32.2337 42.0455C30.1682 42.7473 28.939 44.1419 28.939 45.7761C28.939 46.9402 29.5337 47.8384 30.3601 48.4961C30.8799 47.9609 31.5287 47.4964 32.2868 47.1245C31.414 46.6832 31.1447 46.3488 31.1447 45.7761C31.1447 44.8309 33.034 44.2905 33.9056 44.003V46.3952L36.1124 45.4109V44.0041C36.9853 44.2932 38.8698 44.8329 38.8698 45.7761C38.8698 47.3454 34.3763 48.2708 32.4644 49.5895C31.5365 50.2328 31.0376 51.0505 31.0376 52.0115C31.0376 52.5632 31.1017 53.2474 32.0704 53.9271C32.3451 54.1465 32.7268 53.826 32.5484 53.5176C31.9082 52.2366 32.5879 51.5966 33.9077 51.0427V52.8942C33.9077 53.5033 34.402 53.9976 35.0111 53.9976C35.6202 53.9976 36.1145 53.5033 36.1145 52.8942V51.0438C37.3823 51.5756 38.1802 52.327 37.4706 53.5176C37.2948 53.82 37.6692 54.1492 37.9473 53.9271C38.8852 53.2164 38.9591 52.6073 38.9591 52.0259C38.9591 51.1311 38.4693 50.2627 37.5401 49.5973C39.4182 48.9187 41.0799 47.7766 41.0799 45.7783C41.0799 44.398 40.2028 43.1886 38.6867 42.4229C39.3949 42.168 39.7513 41.997 40.2247 41.7145C42.2981 40.4753 42.607 38.8677 42.607 38.0203ZM39.9743 36.3431C39.6697 36.3431 39.4226 36.0926 39.4226 35.7825C39.4226 35.4725 39.6697 35.222 39.9743 35.222C40.2787 35.222 40.526 35.4725 40.526 35.7825C40.526 36.0926 40.2788 36.3431 39.9743 36.3431Z" fill="white"/>
</g>
</g>
<g clip-path="url(#clip6_0_115)">
<g clip-path="url(#clip7_0_115)">
<path d="M50.4476 24.209H42.8909C41.4085 24.209 40.2961 24.8643 39.3391 25.8213C38.2994 26.861 37.7588 29.1722 36.1033 29.1722V26.1076C36.7602 25.7253 37.2067 25.0217 37.2067 24.2068C37.2067 22.988 36.2187 22 34.9999 22C33.781 22 32.7931 22.988 32.7931 24.2068C32.7931 25.0216 33.2395 25.7253 33.8965 26.1076V39.2579C34.5775 39.0406 35.3249 38.8012 36.1033 38.5513V33.0242C36.582 32.784 36.9683 32.3957 37.2052 31.9151C37.589 32.571 38.3186 33.0363 39.1319 33.0363C39.9568 33.0363 40.6674 32.5783 41.046 31.908C42.3387 33.2007 44.7414 33.2256 46.034 31.933L44.1589 30.0579L45.0191 30.4142C46.7081 31.1138 48.6445 30.3117 49.3442 28.6227L46.6804 27.5193C49.261 27.5192 50.4476 25.8999 50.4476 24.209Z" fill="white"/>
</g>
</g>
<g clip-path="url(#clip8_0_115)">
<g clip-path="url(#clip9_0_115)">
<path d="M30.6607 25.8213C29.7037 24.8643 28.5913 24.209 27.1088 24.209H19.5521C19.5521 25.8998 20.7388 27.5192 23.3194 27.5192L20.6555 28.6226C21.3552 30.3117 23.2916 31.1137 24.9807 30.4142L25.8409 30.0578L23.9658 31.9329C25.2584 33.2257 27.6611 33.2008 28.9537 31.908C29.3323 32.5783 30.043 33.0363 30.8679 33.0363C30.876 33.0363 30.8842 33.0362 30.8923 33.0361C31.9705 33.0239 32.7946 32.05 32.7946 30.9718V28.7519C31.9249 28.0383 31.4268 26.5874 30.6607 25.8213Z" fill="white"/>
</g>
</g>
</g>
</g>
<defs>
<clipPath id="clip0_0_115">
<rect width="32" height="32" fill="white" transform="translate(19 22)"/>
</clipPath>
<clipPath id="clip1_0_115">
<rect width="32" height="32" fill="white" transform="translate(19 22)"/>
</clipPath>
<clipPath id="clip2_0_115">
<rect width="4.75568" height="7.03818" fill="white" transform="translate(27.4131 34.1965)"/>
</clipPath>
<clipPath id="clip3_0_115">
<rect width="4.75568" height="7.03818" fill="white" transform="translate(27.4131 34.1965)"/>
</clipPath>
<clipPath id="clip4_0_115">
<rect width="13.668" height="19.8036" fill="white" transform="translate(28.939 34.1963)"/>
</clipPath>
<clipPath id="clip5_0_115">
<rect width="13.668" height="19.8036" fill="white" transform="translate(28.939 34.1963)"/>
</clipPath>
<clipPath id="clip6_0_115">
<rect width="17.6546" height="17.2579" fill="white" transform="translate(32.7931 22)"/>
</clipPath>
<clipPath id="clip7_0_115">
<rect width="17.6546" height="17.2579" fill="white" transform="translate(32.7931 22)"/>
</clipPath>
<clipPath id="clip8_0_115">
<rect width="13.2425" height="8.8273" fill="white" transform="translate(19.5521 24.209)"/>
</clipPath>
<clipPath id="clip9_0_115">
<rect width="13.2425" height="8.8273" fill="white" transform="translate(19.5521 24.209)"/>
</clipPath>
</defs>
</svg>
