<svg width="32" height="30" viewBox="0 0 32 30" fill="none" xmlns="http://www.w3.org/2000/svg">
<g clip-path="url(#clip0_0_96)">
<path d="M15.9909 3.21824C9.0159 -2.88242 0.14726 2.4778 0.00183389 9.74443C-0.0352258 11.5964 0.499359 13.4003 1.56346 15.0633H8.46069L9.68747 13.0186C10.0437 12.425 10.9058 12.4059 11.2822 12.9977L13.8705 17.0651L17.6436 9.09998C17.9726 8.40497 18.9532 8.38291 19.3161 9.05686L22.5504 15.0633H30.4184C36.2468 5.95403 24.7279 -4.42336 15.9909 3.21824Z" fill="white"/>
<path d="M21.1651 16.4451L18.5443 11.5779L14.8383 19.4017C14.523 20.0673 13.5956 20.1251 13.2002 19.5037L10.5148 15.2838L9.79528 16.4829C9.62585 16.7653 9.32075 16.938 8.99146 16.938H3.04642C3.23278 17.1331 2.23954 16.1418 15.3297 29.1642C15.6953 29.528 16.2863 29.5281 16.652 29.1642C29.5408 16.3422 28.7493 17.1327 28.9353 16.938H21.9905C21.6456 16.9381 21.3286 16.7487 21.1651 16.4451Z" fill="white"/>
</g>
<defs>
<clipPath id="clip0_0_96">
<rect width="32" height="28.8744" fill="white" transform="translate(3.05176e-05 0.562744)"/>
</clipPath>
</defs>
</svg>
